<?xml version="1.0" encoding="UTF-8"?>
<svg id="Layer_2" data-name="Layer 2" xmlns="http://www.w3.org/2000/svg" viewBox="0 0 176.18 170.67">
  <defs>
    <style>
      .cls-1 {
        fill: #0d0d0d;
      }

      .cls-2 {
        fill: #b3b3b3;
      }

      .cls-3 {
        fill: none;
        stroke: #cf2525;
        stroke-dasharray: 31 15;
        stroke-miterlimit: 10;
        stroke-width: 7px;
      }
    </style>
  </defs>
  <g id="Layer_2-2" data-name="Layer 2">
    <g>
      <path class="cls-2" d="M166.21,42.8h-18.09l-16.86-16.86h-18.93l-16.86,16.86h-14.79l-16.86-16.86h-18.93l-16.86,16.86H9.97L0,144.72h22.75l18.96-18.96h16.89l18.96,18.96h21.03l18.96-18.96h16.89l18.96,18.96h22.76l-9.97-101.92ZM170.67,139.72h-13.89l-6.99-91.92h11.89l8.99,91.92ZM31.52,46.41l11.58-11.57-4.85,87.33-13.52,13.52,6.79-89.27ZM48.32,30.95h11.91l-2.99,89.82h-13.9l4.99-89.82ZM65.11,34.29l12.04,12.04-.98,89.93-13.99-13.99,2.93-87.97ZM82.14,47.8h11.91l1,91.92h-13.91l1-91.92ZM99.03,46.33l12.04-12.04,2.93,87.97-13.99,13.99-.98-89.93ZM115.96,30.95h11.91l4.99,89.82h-13.9l-2.99-89.82ZM133.09,34.84l11.57,11.57,6.79,89.27-13.52-13.52-4.85-87.33ZM14.51,47.8h11.89l-6.99,91.92H5.51L14.51,47.8Z"/>
      <path class="cls-1" d="M134.65,29.33l-3.38-3.38h-18.93l-16.86,16.85h-14.78l-16.86-16.85h-18.93l-16.85,16.85H9.97L0,144.72h22.75l18.97-18.96h16.89l18.96,18.96h21.04l18.96-18.96h16.89l.19.19v-63.02l-1.56-28.09,1.56,1.56v-7.07ZM19.4,139.72H5.51L14.5,47.8h11.9l-7,91.92ZM38.24,122.17l-13.52,13.51,6.8-89.27,11.57-11.57-4.85,87.33ZM57.23,120.76h-13.91l4.99-89.81h11.91l-2.99,89.81ZM76.17,136.25l-13.99-13.99,2.93-87.97,12.04,12.04-.98,89.92ZM81.14,139.72l.99-91.92h11.91l1,91.92h-13.9ZM100.01,136.25l-.98-89.92,12.04-12.04,2.93,87.97-13.99,13.99ZM118.95,120.76l-2.99-89.81h11.91l4.99,89.81h-13.91Z"/>
      <polyline class="cls-3" points="134.65 170.67 134.65 125.95 134.65 62.93 134.65 36.4 134.65 29.33 134.65 0"/>
    </g>
  </g>
</svg>