<?xml version="1.0" encoding="UTF-8"?>
<svg id="Layer_2" data-name="Layer 2" xmlns="http://www.w3.org/2000/svg" viewBox="0 0 230.31 227.56">
  <defs>
    <style>
      .cls-1, .cls-2 {
        fill: none;
      }

      .cls-3 {
        fill: #231f20;
      }

      .cls-2 {
        stroke: #231f20;
        stroke-miterlimit: 10;
        stroke-width: 5px;
      }
    </style>
  </defs>
  <g id="Layer_2-2" data-name="Layer 2">
    <g>
      <g>
        <polygon class="cls-2" points="2.76 170.67 21.72 170.67 40.68 151.71 59.65 151.71 78.61 170.67 97.57 170.67 116.54 151.71 135.5 151.71 154.46 170.67 173.43 170.67 163.94 73.75 147.09 73.75 130.23 56.89 113.37 56.89 96.52 73.75 79.66 73.75 62.81 56.89 45.95 56.89 29.09 73.75 12.24 73.75 2.76 170.67"/>
        <line class="cls-2" x1="29.09" y1="73.75" x2="21.72" y2="170.67"/>
        <line class="cls-2" x1="45.95" y1="56.89" x2="40.68" y2="151.71"/>
        <line class="cls-2" x1="59.65" y1="151.71" x2="62.81" y2="56.89"/>
        <line class="cls-2" x1="79.66" y1="73.75" x2="78.61" y2="170.67"/>
        <line class="cls-2" x1="96.52" y1="73.75" x2="97.57" y2="170.67"/>
        <line class="cls-2" x1="113.37" y1="56.89" x2="116.54" y2="151.71"/>
        <line class="cls-2" x1="130.23" y1="56.89" x2="135.5" y2="151.71"/>
        <line class="cls-2" x1="147.09" y1="73.75" x2="154.46" y2="170.67"/>
      </g>
      <g>
        <line class="cls-2" x1="209.26" y1="149.24" x2="203.97" y2="95.17"/>
        <polygon class="cls-3" points="223.72 143.43 211.35 170.67 193.94 146.34 223.72 143.43"/>
        <polygon class="cls-3" points="219.28 98.07 201.87 73.75 189.51 100.98 219.28 98.07"/>
      </g>
    </g>
    <rect class="cls-1" x="2.76" width="227.56" height="227.56"/>
  </g>
</svg>