<?xml version="1.0" encoding="UTF-8"?>
<svg id="Layer_2" data-name="Layer 2" xmlns="http://www.w3.org/2000/svg" viewBox="0 0 212.71 157.37">
  <defs>
    <style>
      .cls-1 {
        fill: #0d0d0d;
      }

      .cls-2 {
        fill: #b3b3b3;
      }

      .cls-3 {
        fill: none;
        stroke: #cf2525;
        stroke-dasharray: 31 15;
        stroke-miterlimit: 10;
        stroke-width: 7px;
      }
    </style>
  </defs>
  <g id="Layer_2-2" data-name="Layer 2">
    <g>
      <path class="cls-1" d="M184.47,36.15h-18.09l-16.86-16.86h-18.93l-16.86,16.86h-14.79l-16.86-16.86h-18.93l-16.86,16.86h-18.09l-9.97,101.92h22.75l18.96-18.96h16.89l18.96,18.96h21.03l18.96-18.96h16.89l18.96,18.96h22.76l-9.97-101.92ZM188.93,133.07h-13.89l-6.99-91.92h11.89l8.99,91.92ZM49.78,39.76l11.58-11.57-4.85,87.33-13.52,13.52,6.79-89.27ZM66.58,24.3h11.91l-2.99,89.82h-13.9l4.99-89.82ZM83.38,27.64l12.04,12.04-.98,89.93-13.99-13.99,2.93-87.97ZM100.4,41.15h11.91l1,91.92h-13.91l1-91.92ZM117.29,39.68l12.04-12.04,2.93,87.97-13.99,13.99-.98-89.93ZM134.22,24.3h11.91l4.99,89.82h-13.9l-2.99-89.82ZM151.35,28.19l11.57,11.57,6.79,89.27-13.52-13.52-4.85-87.33ZM32.77,41.15h11.89l-6.99,91.92h-13.89l8.99-91.92Z"/>
      <path class="cls-2" d="M165.74,35.5l-16.21-16.21h-18.93l-16.85,16.86h-14.79l-16.85-16.86h-18.93l-16.86,16.86h-18.08l-9.97,101.92h6.44l6.87-5h-7.8l8.99-91.92h11.89l-6.63,87.23,5.3-3.86,6.45-84.76,11.58-11.57-4.82,86.72,5.22-3.79,4.82-86.83h11.91l-2.56,76.52,5.14-3.73,2.31-69.44,12.04,12.04-.52,47.33,5.04-3.66.46-42.2h11.91l.36,32.94,4.96-3.61-.33-30.8,12.03-12.04,1.12,33.52,4.88-3.55-1.11-33.32h11.91l1.36,24.48,4.82-3.51-.95-17.07,10.28,10.28,4.1-2.97Z"/>
      <line class="cls-3" x1="210.65" y1="2.83" x2="2.06" y2="154.54"/>
    </g>
  </g>
</svg>