<?xml version="1.0" encoding="UTF-8"?>
<svg id="Layer_2" data-name="Layer 2" xmlns="http://www.w3.org/2000/svg" viewBox="0 0 230.31 227.56">
  <defs>
    <style>
      .cls-1, .cls-2 {
        fill: none;
      }

      .cls-3 {
        fill: #231f20;
      }

      .cls-2 {
        stroke: #231f20;
        stroke-miterlimit: 10;
        stroke-width: 5px;
      }
    </style>
  </defs>
  <g id="Layer_2-2" data-name="Layer 2">
    <g>
      <g>
        <polygon class="cls-2" points="2.76 151.71 21.72 151.71 40.68 132.74 59.65 132.74 78.61 151.71 97.57 151.71 116.54 132.74 135.5 132.74 154.46 151.71 173.43 151.71 163.94 54.78 147.09 54.78 130.23 37.93 113.37 37.93 96.52 54.78 79.66 54.78 62.81 37.93 45.95 37.93 29.09 54.78 12.24 54.78 2.76 151.71"/>
        <line class="cls-2" x1="29.09" y1="54.78" x2="21.72" y2="151.71"/>
        <line class="cls-2" x1="45.95" y1="37.93" x2="40.68" y2="132.74"/>
        <line class="cls-2" x1="59.65" y1="132.74" x2="62.81" y2="37.93"/>
        <line class="cls-2" x1="79.66" y1="54.78" x2="78.61" y2="151.71"/>
        <line class="cls-2" x1="96.52" y1="54.78" x2="97.57" y2="151.71"/>
        <line class="cls-2" x1="113.37" y1="37.93" x2="116.54" y2="132.74"/>
        <line class="cls-2" x1="130.23" y1="37.93" x2="135.5" y2="132.74"/>
        <line class="cls-2" x1="147.09" y1="54.78" x2="154.46" y2="151.71"/>
      </g>
      <g>
        <line class="cls-2" x1="24.28" y1="189.63" x2="151.9" y2="189.63"/>
        <polygon class="cls-3" points="28.66 204.59 2.76 189.63 28.66 174.67 28.66 204.59"/>
        <polygon class="cls-3" points="147.52 204.59 173.43 189.63 147.52 174.67 147.52 204.59"/>
      </g>
    </g>
    <rect class="cls-1" x="2.76" width="227.56" height="227.56"/>
  </g>
</svg>