<?xml version="1.0" encoding="UTF-8"?>
<svg id="Layer_2" data-name="Layer 2" xmlns="http://www.w3.org/2000/svg" viewBox="0 0 176.18 169.16">
  <defs>
    <style>
      .cls-1 {
        fill: #231f20;
      }

      .cls-2 {
        fill: none;
        stroke: #231f20;
        stroke-miterlimit: 10;
        stroke-width: 5px;
      }
    </style>
  </defs>
  <g id="Layer_2-2" data-name="Layer 2">
    <g>
      <g>
        <polygon class="cls-2" points="2.76 116.28 21.72 116.28 40.68 97.32 59.65 97.32 78.61 116.28 97.57 116.28 116.54 97.32 135.5 97.32 154.46 116.28 173.43 116.28 163.94 19.36 147.09 19.36 130.23 2.5 113.37 2.5 96.52 19.36 79.66 19.36 62.81 2.5 45.95 2.5 29.09 19.36 12.24 19.36 2.76 116.28"/>
        <line class="cls-2" x1="29.09" y1="19.36" x2="21.72" y2="116.28"/>
        <line class="cls-2" x1="45.95" y1="2.5" x2="40.68" y2="97.32"/>
        <line class="cls-2" x1="59.65" y1="97.32" x2="62.81" y2="2.5"/>
        <line class="cls-2" x1="79.66" y1="19.36" x2="78.61" y2="116.28"/>
        <line class="cls-2" x1="96.52" y1="19.36" x2="97.57" y2="116.28"/>
        <line class="cls-2" x1="113.37" y1="2.5" x2="116.54" y2="97.32"/>
        <line class="cls-2" x1="130.23" y1="2.5" x2="135.5" y2="97.32"/>
        <line class="cls-2" x1="147.09" y1="19.36" x2="154.46" y2="116.28"/>
      </g>
      <g>
        <line class="cls-2" x1="24.28" y1="154.21" x2="151.9" y2="154.21"/>
        <polygon class="cls-1" points="28.66 169.16 2.76 154.21 28.66 139.25 28.66 169.16"/>
        <polygon class="cls-1" points="147.52 169.16 173.43 154.21 147.52 139.25 147.52 169.16"/>
      </g>
    </g>
  </g>
</svg>