<?xml version="1.0" encoding="UTF-8"?>
<svg id="Layer_2" data-name="Layer 2" xmlns="http://www.w3.org/2000/svg" viewBox="0 0 230.31 227.56">
  <defs>
    <style>
      .cls-1, .cls-2, .cls-3, .cls-4 {
        fill: none;
      }

      .cls-5 {
        fill: #1e66d9;
      }

      .cls-2 {
        stroke: #0d0d0d;
      }

      .cls-2, .cls-3, .cls-4 {
        stroke-miterlimit: 10;
        stroke-width: 5px;
      }

      .cls-3 {
        stroke: #231f20;
      }

      .cls-4 {
        stroke: #1e66d9;
        stroke-dasharray: 15 10;
      }
    </style>
  </defs>
  <g id="Layer_2-2" data-name="Layer 2">
    <g>
      <g>
        <polygon class="cls-3" points="12.24 73.75 29.09 73.75 45.95 56.89 62.81 56.89 79.66 73.75 78.61 170.67 59.65 151.71 40.68 151.71 21.72 170.67 2.76 170.67 12.24 73.75"/>
        <line class="cls-3" x1="29.09" y1="73.75" x2="21.72" y2="170.67"/>
        <line class="cls-3" x1="45.95" y1="56.89" x2="40.68" y2="151.71"/>
        <line class="cls-3" x1="59.65" y1="151.71" x2="62.81" y2="56.89"/>
      </g>
      <polyline class="cls-2" points="173.43 199.12 173.43 154.39 173.43 91.37 173.43 64.84 173.43 57.77 173.43 28.44"/>
      <g>
        <line class="cls-4" x1="93.55" y1="113.81" x2="156.17" y2="113.81"/>
        <rect class="cls-5" x="91.3" y="99.18" width="4.5" height="29.25"/>
        <rect class="cls-5" x="153.92" y="99.18" width="4.5" height="29.25"/>
      </g>
    </g>
    <rect class="cls-1" x="2.76" width="227.56" height="227.56"/>
  </g>
</svg>